<svg xmlns="http://www.w3.org/2000/svg" width="500" height="500" version="1.2" viewBox="0 0 375 375"><defs><clipPath id="a"><path d="M52.578 52.578h270v270h-270Zm0 0"/></clipPath></defs><path d="M0 0h375v375H0z" style="fill:#fff;fill-opacity:1;stroke:none"/><path d="M0 0h375v375H0z" style="fill:#452432;fill-opacity:1;stroke:none"/><path d="m141.203 187.422 46.281 99.058 46.301-98.98-46.3-99Zm68.262.078c0 12.14-9.836 21.965-21.977 21.965-12.129 0-21.96-9.828-21.96-21.965 0-12.145 9.824-21.969 21.96-21.969 12.14-.004 21.977 9.824 21.977 21.969Zm0 0" style="stroke:none;fill-rule:nonzero;fill:#f3ebde;fill-opacity:1"/><g clip-path="url(#a)"><path d="M187.492 52.578c-74.508 0-134.914 60.406-134.914 134.922 0 74.508 60.406 134.914 134.914 134.914 74.512 0 134.914-60.402 134.918-134.914 0-74.516-60.406-134.922-134.918-134.922Zm0 246.125c-61.426 0-111.215-49.793-111.215-111.203 0-61.426 49.79-111.227 111.215-111.227 61.422 0 111.215 49.797 111.215 111.227 0 61.41-49.793 111.203-111.215 111.203Zm0 0" style="stroke:none;fill-rule:nonzero;fill:#f3ebde;fill-opacity:1"/></g></svg>